<svg width="60" height="60" viewBox="0 0 60 60" fill="none" xmlns="http://www.w3.org/2000/svg">
<rect x="0.25" y="0.25" width="59.5" height="59.5" fill="#2C374B"/>
<rect x="0.25" y="0.25" width="59.5" height="59.5" stroke="#D7D7D7" stroke-width="0.5"/>
<path d="M30 56C44.4956 56 56 44.2655 56 30C56 15.5044 44.2655 4 30 4C15.5044 4 4 15.7345 4 30C4 44.2655 15.7345 56 30 56Z" fill="#2C374B"/>
<path fill-rule="evenodd" clip-rule="evenodd" d="M44.2644 20.5667C44.0343 20.3366 32.76 13.664 31.3795 13.2038C30.9193 12.9737 29.7689 12.7437 29.0786 12.9737C28.3883 13.2038 16.4237 20.1065 15.9636 20.5667C15.7335 20.7968 15.5034 21.2569 15.2733 21.487C15.0432 21.9472 15.0432 22.1773 15.0432 30.2304V38.5136L16.6538 39.4339C17.5742 39.8941 18.2644 40.3543 18.2644 40.3543C18.4945 40.3543 29.3087 23.0976 29.3087 22.8675C29.3087 22.6375 26.7777 22.6375 26.0874 22.8675C25.1671 23.0976 24.4768 23.5578 24.0166 24.018C23.7866 24.2481 22.406 26.549 20.5653 29.0799C18.9547 31.6109 17.5742 33.9118 17.5742 33.9118C17.5742 33.9118 17.5742 31.6109 17.5742 28.3897V22.6375L17.8043 22.4074C18.2644 21.9472 29.9989 15.2746 30.4591 15.2746C30.6892 15.2746 30.9193 15.2746 33.6804 16.8852C34.6007 17.3454 37.1317 18.726 39.2025 20.1065C41.2733 21.2569 43.114 22.4074 43.3441 22.6375L43.5742 22.8675V34.8321L37.822 25.8587C37.5919 25.3985 37.3618 24.9383 37.1317 24.7083C37.1317 24.7083 36.9016 25.1684 35.5211 27.4693C35.291 27.6994 35.0609 28.1596 35.0609 28.3897L34.8308 28.8498L35.291 29.31C35.291 29.31 35.291 29.5401 35.5211 29.5401L35.9812 30.2304C35.9812 30.2304 35.9812 30.4605 36.2113 30.4605C36.4414 30.6906 36.6715 31.1507 36.6715 31.3808C36.6715 31.3808 36.6715 31.3808 36.6715 31.6109L41.5034 39.4339L41.0432 39.664C40.8131 39.8941 40.583 39.8941 40.3529 39.8941L34.3706 30.6906L34.1405 30.4605L33.6804 31.3808L31.3795 35.0622L35.9812 42.4251C35.291 42.8852 31.3795 45.6463 31.1494 45.6463C30.9193 45.6463 25.6273 42.195 25.8574 41.9649C25.8574 41.9649 27.468 39.2038 29.3087 35.9826C30.9193 33.2215 32.9901 29.7702 34.3706 27.4693C35.9812 24.7083 36.6715 23.3277 36.6715 23.3277C36.6715 23.3277 35.5211 23.3277 34.1405 23.3277H31.8397L26.5476 32.0711C24.7069 35.2923 22.8662 38.2835 21.9459 39.8941C20.3352 40.1242 19.8751 40.5844 19.8751 40.5844L19.645 41.0445L23.7866 43.3454C26.0874 44.726 28.1582 45.8764 28.6184 46.1065C29.3087 46.5667 30.4591 46.5667 30.9193 46.5667C31.3795 46.3366 43.3441 39.4339 44.0343 38.9737C44.2644 38.7437 44.4945 38.5136 44.7246 38.0534L44.9547 37.3631V22.1773L44.7246 21.7171C44.7246 21.2569 44.2644 20.7968 44.2644 20.5667Z" fill="white"/>
<path d="M43.1171 34.6016L36.2145 24.0175L33.6835 28.1591L40.356 38.9733L43.3472 37.5928L43.1171 34.6016Z" fill="#24A2EE"/>
<path d="M39.8962 40.3548L32.9936 29.7707L30.0024 34.3725L35.5245 43.1158L38.9759 41.7353L39.8962 40.3548Z" fill="#24A2EE"/>
<path fill-rule="evenodd" clip-rule="evenodd" d="M17.3452 22.6372L30.0001 15.2744L42.655 22.6372V37.3629L30.0001 44.7257L20.5665 39.4337L19.416 41.5045L29.77 47.4868C30.0001 47.7169 30.2302 47.7169 30.4603 47.4868L44.9558 39.2036C45.1859 38.9735 45.416 38.7434 45.416 38.5134V21.947C45.416 21.7169 45.1859 21.4868 44.9558 21.2567L30.4603 12.9735C30.2302 12.7434 30.0001 12.7434 29.77 12.9735L15.2744 21.0266C15.0443 21.2567 14.8143 21.4868 14.8143 21.7169V38.2833C14.8143 38.5134 15.0443 38.7434 15.2744 38.9735L18.2656 40.5842L19.6461 38.5134L17.5753 37.3629L17.5742 22.6375L17.3452 22.6372Z" fill="#98BCDC"/>
<path d="M35.5233 22.637H30.6914L19.4171 41.044L23.3286 43.3449L35.5233 22.637Z" fill="white"/>
<path d="M23.3275 24.4776C24.478 22.6369 27.6992 22.6369 29.0797 22.867L18.0355 40.5838C17.5753 40.3537 16.655 39.8935 15.9647 39.4333C15.0443 38.9732 14.8143 38.9735 14.8143 38.2833V37.3625C17.3452 33.6811 22.1771 26.3183 23.3275 24.4776Z" fill="white"/>
</svg>
